<?xml version="1.0" encoding="UTF-8"?>
<svg xmlns="http://www.w3.org/2000/svg" version="1.1" viewBox="0 0 600 169">
  <defs>
    <style>
      .cls-1 {
        fill: #e23818;
      }

      .cls-2 {
        fill: #00b7a6;
      }

      .cls-3 {
        fill: #c17bd1;
      }

      .cls-4 {
        fill: #f57b46;
      }

      .cls-5 {
        fill: #b7c12d;
      }

      .cls-6 {
        fill: none;
        stroke: #f6ede4;
        stroke-miterlimit: 1.6;
        stroke-width: 2.6px;
      }

      .cls-7 {
        fill: #f56e90;
      }

      .cls-8 {
        fill: #f2c32e;
      }
    </style>
  </defs>
  <!-- Generator: Adobe Illustrator 28.7.1, SVG Export Plug-In . SVG Version: 1.2.0 Build 142)  -->
  <g>
    <g id="Layer_1">
      <path class="cls-6" d="M222.9,119.2c.3-.8.7-1.6,1.2-2.4.5-.8,1.1-1.5,1.7-2,.6-.5,1.3-.8,2-.8s1.3.2,1.8.6c.5.4.7,1,.7,1.7s-.3,1.3-.9,1.8c-.6.6-1.3,1.1-2.3,1.5-.9.4-1.9.8-2.9,1-.5,1.2-1,2.7-1.6,4.4-.6,1.7-1.1,3.5-1.7,5.4-.6,1.9-1.1,3.7-1.6,5.4-.5,1.7-.9,3.2-1.2,4.5-.3,1.3-.4,2.1-.4,2.6,0,2.5,1,3.8,2.9,3.9.8,0,1.6-.4,2.5-1.2.8-.8,1.7-1.9,2.5-3.2.8-1.3,1.6-2.8,2.3-4.4.2-.5.5-1.2.9-2.1.4-1,.8-2.1,1.3-3.4.5-1.3,1-2.6,1.4-3.9.5-1.4.9-2.7,1.4-3.9.4-1.2.8-2.3,1.1-3.2.3-.9.5-1.5.5-1.8.1-.4.4-.7.9-.7s.6.1.7.4c.2.2.2.5.1.8-1.1,3.3-2.1,6.5-3.1,9.4-.9,2.9-1.7,5.5-2.3,7.7-.6,2.3-.9,4.1-.9,5.5s.2,2.2.6,2.9c.4.7,1.1,1.1,2,1.1s2.1-.5,3-1.4c.9-.9,1.7-2.2,2.5-3.7.8-1.6,1.5-3.3,2.1-5.2.7-1.9,1.3-3.9,1.9-5.9.7-2.1,1.4-4.2,2.1-6.2.7-2,1.5-3.8,2.3-5.4.8-1.6,1.8-2.9,2.8-3.9,1-.9,2.2-1.4,3.6-1.4s.5,0,.7.3c.2.2.3.4.3.6s0,.5-.3.6c-.2.2-.4.3-.6.3-1,0-2,.4-2.8,1.3-.8.9-1.6,2.1-2.3,3.5-.7,1.5-1.4,3.2-2,5-.6,1.9-1.3,3.8-1.9,5.8-.7,2.2-1.4,4.3-2.1,6.4-.7,2.1-1.5,4-2.4,5.6-.9,1.7-1.8,3-2.9,4-1.1,1-2.4,1.5-3.8,1.5s-2.6-.6-3.3-1.7c-.7-1.1-1.1-2.5-1.1-4.1s0-.6,0-.9c0-.3,0-.6,0-.9-1.1,2.1-2.4,3.9-3.7,5.4-1.3,1.5-2.7,2.2-4.1,2.2-1.6,0-2.8-.6-3.6-1.6-.8-1-1.1-2.3-1.1-4.1s.1-1.4.4-2.5c.2-1.2.6-2.5,1-4.1.4-1.6.9-3.2,1.4-5,.5-1.8,1.1-3.5,1.7-5.3.6-1.8,1.2-3.4,1.7-5-.4,0-.8.2-1.3.2-.4,0-.9.1-1.3.2-1.3.2-2.7.4-4.2.7-1.5.3-2.8.7-4.1,1.2-1.3.5-2.3,1.1-3.1,1.9-.8.8-1.2,1.8-1.2,3.1s.3,2,1,2.8c.7.7,1.4,1.1,2.4,1.1s.5,0,.7.3c.1.2.2.4.2.6s0,.4-.2.6c-.2.2-.4.3-.7.3-1,0-1.9-.3-2.7-.8-.8-.5-1.4-1.2-1.8-2.1-.4-.9-.6-1.8-.6-2.9,0-1.6.4-2.9,1.3-3.9.9-1,2-1.8,3.4-2.4,1.4-.6,2.9-1.1,4.6-1.4,1.6-.3,3.2-.6,4.7-.8.6-.1,1.3-.2,1.9-.3.6,0,1.2-.2,1.7-.3ZM225.1,118.5c.9-.2,1.7-.5,2.3-1,.7-.5,1-.9,1-1.3s-.2-.6-.6-.6-.9.3-1.4.9-.9,1.3-1.3,2ZM264.3,138c-.9,2.1-1.9,3.7-2.9,4.7-1,1-2.2,1.5-3.4,1.5s-2.3-.4-3.2-1.2c-.8,1-1.7,2-2.7,2.7-1,.8-2,1.1-3,1.1s-2.3-.4-2.9-1.2c-.5-.8-.8-1.8-.8-3s.2-3.2.6-4.6c.4-1.4.9-2.7,1.5-3.9.6-1.1,1.1-2.1,1.5-2.9,1.8-3,3.8-4.4,6-4.4,1.4,0,2.5.5,3.2,1.3.7.9,1.1,1.9,1.1,3.2s-.1,1.9-.4,3.1c-.3,1.2-.7,2.3-1.2,3.6-.5,1.2-1.1,2.4-1.7,3.5.5.6,1.2.9,2.2.9s1.7-.4,2.5-1.3c.8-.8,1.5-2.1,2.2-3.9.1-.4.4-.5.8-.5s.6.1.8.4c.2.3.2.5,0,.8ZM254.5,136.7c.3,0,.5.1.7.3.2.2.2.5.1.8,0,.2,0,.3-.1.5,0,.2,0,.3,0,.5.6-1.3,1.2-2.7,1.5-4,.4-1.4.6-2.5.6-3.5s-.2-1.6-.7-2c-.5-.5-1.1-.7-1.8-.7s-1.6.3-2.3,1c-.7.7-1.4,1.5-2.1,2.6-.4.6-.8,1.4-1.3,2.5-.5,1.1-1,2.3-1.4,3.6-.4,1.3-.6,2.7-.6,4.2s.1,1.4.4,1.9c.3.5.8.7,1.4.7s1.6-.4,2.4-1.1c.8-.7,1.6-1.6,2.3-2.6-.2-.6-.3-1.2-.3-2,0-.8,0-1.5.2-2,0-.4.4-.7.9-.7ZM279.4,136.8c.4.2.6.4.6.8s0,.2,0,.4c-1.4,3.2-2.7,5.4-3.8,6.8-1.2,1.4-2.5,2.1-3.9,2.1h0c-1,0-1.7-.3-2.2-1-.5-.7-.8-1.5-.8-2.6s.1-1.7.4-2.7c0-.3.2-.9.5-1.7.2-.8.5-1.6.8-2.5.3-.9.5-1.7.8-2.4.3-.7.4-1.2.5-1.4-1.1-.4-1.9-.6-2.4-.8-.5-.2-1-.3-1.3-.5-.3-.1-.6-.3-.9-.4,0,.1,0,.3-.2.5,0,.2-.3.6-.5,1.2-.3.6-.6,1.4-1.1,2.4-.5,1.1-1.2,2.5-2,4.4-.2.3-.4.5-.8.5s-.2,0-.4,0c-.3-.2-.5-.5-.5-.8s0-.2,0-.4l3.4-7.4.5-1.3c-.6-.5-1.1-1-1.5-1.5-.4-.6-.6-1.2-.6-2s.3-1.6.8-2c.5-.5,1.1-.7,1.8-.7s1.4.3,1.8.8c.4.5.7,1.2.7,2s0,.7-.2,1c0,.3-.3.9-.5,1.7.6.3,1.2.5,1.9.8.7.2,1.3.5,2,.7.3,0,.6.2.9.3.3,0,.5.2.7.3.2,0,.4.2.5.5,0,.2.1.5,0,.7-.1.3-.4.9-.6,1.7-.3.8-.6,1.7-.9,2.6-.3.9-.6,1.8-.8,2.6-.3.8-.4,1.3-.5,1.5-.1.4-.2.9-.3,1.2,0,.4,0,.7-.1,1.1,0,.5,0,1,.3,1.3.2.3.5.5,1,.5,1,0,2-.6,2.9-1.9.9-1.2,2-3.2,3.2-6,.2-.4.5-.5.8-.5s.2,0,.4,0ZM267,126.5c0-.4,0-.6-.2-.8-.1-.1-.3-.2-.5-.2-.5,0-.8.3-.8.8,0,.8.3,1.4,1,2,.1-.3.2-.6.3-1,.1-.3.2-.6.2-.8ZM297.7,136.8c.4.2.5.4.5.8s0,.2,0,.4c-.8,1.7-1.7,3.3-2.5,4.6-.8,1.3-1.8,2.4-2.8,3.1-1,.7-2.1,1.1-3.4,1.1s-1.8-.3-2.3-1-.8-1.6-.8-2.7c-.7,1-1.5,1.9-2.4,2.6-.9.7-1.9,1.1-2.9,1.1s-2.1-.4-2.6-1.3c-.6-.9-.8-2-.8-3.2s.2-2.3.5-3.7c.3-1.4.8-2.7,1.3-4.1.6-1.4,1.3-2.6,2-3.8.8-1.1,1.7-2.1,2.6-2.8.9-.7,1.9-1.1,2.9-1.1s1.8.2,2.4.6c.6.4,1.1.9,1.4,1.6l.8-2.2,2.2-6.5c.1-.4.4-.5.8-.5s.6.1.8.4c.1.3.2.5,0,.8,0,.2-.2.7-.5,1.6-.3.8-.7,1.9-1.1,3.1-.4,1.2-.9,2.5-1.3,3.8-.5,1.3-.9,2.6-1.3,3.8-.4,1.2-.8,2.2-1.1,3.1-.3.8-.5,1.3-.5,1.5-.3,1-.6,2-.9,3.1-.3,1.1-.5,1.9-.5,2.5s.1.9.3,1.3c.2.3.6.5,1,.5,1,0,1.9-.3,2.7-1.1.8-.7,1.6-1.7,2.3-2.9.7-1.2,1.4-2.5,2-4,.2-.3.5-.5.8-.5s.2,0,.3,0ZM280.8,145.1c.8,0,1.6-.3,2.4-1,.8-.7,1.4-1.6,2.1-2.7.6-1.1,1.2-2.3,1.7-3.5.5-1.2,1-2.4,1.4-3.5.2-.5.4-.9.5-1.3.2-.4.3-.8.5-1.1,0,0,0-.2,0-.3,0-1-.3-1.8-.8-2.3-.5-.5-1.1-.8-1.9-.8-.8,0-1.6.4-2.3,1-.7.6-1.4,1.5-2,2.5-.6,1-1.2,2.2-1.7,3.3-.5,1.2-.8,2.3-1.1,3.5-.3,1.1-.4,2.1-.4,3,0,.9.1,1.7.4,2.2.2.6.7.8,1.3.8ZM340.1,136.8c.4.2.5.4.5.8s0,.2,0,.4c-1.3,3.1-2.9,5.6-4.8,7.6-1.9,2-4.4,3.4-7.5,4.3-2.1,5.8-4.6,8.8-7.7,8.8-1.3,0-2.3-.3-3-1.1-.8-.8-1.1-1.8-1.1-3s.6-2.5,1.7-3.4c1.1-1,2.9-1.7,5.5-2.1.5,0,1.1-.2,1.7-.3.6-.1,1.1-.2,1.7-.4l2.2-6.4c-1.3,1.7-2.7,3.1-4.2,4.2-1.5,1-3.1,1.6-4.9,1.6-2.1,0-3.7-.7-4.7-1.9-1-1.2-1.5-2.8-1.5-4.8s.2-2.7.5-4.2c.4-1.6.8-3.1,1.2-4.4-2.1-.5-3.9-1.5-5.2-2.9-1.3-1.4-1.9-3.2-1.9-5.4s0-1.6.3-2.4c.2-.8.4-1.6.7-2.4.3-.6.6-1.3.9-1.8.4-.6.7-1.1,1.1-1.6.2-.2.4-.3.7-.3s.4,0,.6.2c.2.2.3.4.3.7s0,.5-.2.6c-.7.8-1.3,1.8-1.7,2.9-.3.6-.5,1.3-.7,2-.2.7-.2,1.4-.2,2.1,0,1.9.6,3.4,1.7,4.5,1.1,1.1,2.6,1.8,4.3,2.2,1.1-3,2.3-5.7,3.6-8,1.3-2.3,2.8-4,4.3-5.3,1.5-1.3,3.1-1.9,4.7-1.9s3.3.5,4.3,1.7c1.1,1.1,1.6,2.6,1.6,4.4,0,1.8-.6,3.4-1.5,4.7-.9,1.4-2.1,2.6-3.6,3.5-1.5,1-3.1,1.7-4.9,2.2-1.8.5-3.7.7-5.5.7s-.6,0-.9,0c-.3,0-.6,0-1,0-.5,1.4-.9,2.9-1.3,4.4-.4,1.6-.5,2.9-.5,3.9,0,1.7.4,3,1.2,3.7.8.8,1.9,1.2,3.3,1.2,1.6,0,3.1-.5,4.4-1.6,1.4-1.1,2.7-2.5,3.8-4.2,1.2-1.6,2.2-3.4,3.2-5.4.9-2,1.8-4,2.6-6.1l.4-1.1c0-.3.2-.4.3-.5.1,0,.3-.1.5-.1.4,0,.6.1.8.4.2.2.2.5,0,.8l-3.1,8.3c-.3,1-.7,2-1.1,3-.4,1-.8,2.1-1.2,3.3l-1.8,5.1c2.4-.8,4.4-2.2,6-4,1.6-1.9,2.9-4,3.9-6.5.2-.4.5-.5.8-.5s.2,0,.4,0ZM318,131c1.6.2,3.3.1,5.1-.3,1.7-.4,3.4-1,4.8-1.9,1.5-.9,2.7-1.9,3.6-3.2.9-1.2,1.4-2.6,1.4-4.1s-.4-2.3-1.2-3.1c-.8-.8-1.8-1.2-3-1.2s-2.6.6-3.9,1.7c-1.3,1.1-2.5,2.7-3.6,4.8s-2.2,4.4-3.2,7.2ZM326.2,150.5c-.4,0-.8.2-1.2.2-.4,0-.8.2-1.2.2-2,.3-3.4.8-4.3,1.4-.9.6-1.4,1.4-1.5,2.4,0,.7.2,1.3.7,1.8.5.4,1,.6,1.7.6,2.3,0,4.2-2.2,5.6-6.6ZM357.2,136.8c.4.2.5.4.5.8s0,.2,0,.4h0c-.4,1-.8,1.9-1.3,3-.5,1-1.1,2-1.7,2.9s-1.3,1.6-2.1,2.2c-.8.6-1.6.8-2.6.8s-1.8-.3-2.3-1c-.5-.7-.8-1.5-.8-2.6-1.7,2.4-3.5,3.6-5.3,3.6s-2.1-.4-2.6-1.3c-.6-.9-.8-2-.8-3.2s.2-2.3.5-3.7c.3-1.4.8-2.7,1.4-4.1.6-1.4,1.3-2.6,2-3.8.8-1.1,1.6-2.1,2.6-2.8.9-.7,1.9-1.1,2.9-1.1,1.8,0,3.1.7,3.9,2.2.1-.4.3-.7.4-1,.1-.3.2-.6.3-.9.1-.4.4-.5.8-.5s.6.1.7.4c.2.3.2.5,0,.8l-2.1,5.7c-.8,2.1-1.4,4.1-2,5.8-.6,1.7-.9,3.1-.9,4s.4,1.8,1.3,1.8,1.3-.2,1.8-.7c.6-.5,1.1-1.1,1.6-1.9.5-.8,1-1.6,1.4-2.5.4-.9.8-1.7,1.2-2.5h0c.2-.5.5-.7.8-.7s.2,0,.4,0ZM341.5,145.1c.8,0,1.6-.3,2.4-1,.8-.7,1.4-1.6,2.1-2.7.6-1.1,1.2-2.3,1.7-3.5.5-1.2,1-2.4,1.4-3.5l1-2.7c0-1-.3-1.8-.8-2.3-.5-.5-1.1-.8-1.9-.8-.8,0-1.6.4-2.3,1-.7.6-1.4,1.5-2,2.5-.6,1-1.2,2.1-1.7,3.3-.5,1.2-.8,2.4-1.1,3.5-.3,1.1-.4,2.1-.4,3,0,.9.1,1.7.4,2.2.2.6.7.8,1.3.8ZM383.8,137.6s0,.2-.1.5c-.4.9-.8,1.8-1.3,2.8-.5,1-1,2-1.7,2.9-.6.9-1.3,1.6-2.1,2.2-.8.6-1.6.8-2.6.8s-1.8-.3-2.3-1c-.5-.7-.8-1.5-.8-2.6s.2-2,.5-3.1c.3-1.1.7-2.2,1.1-3.3.4-1.1.8-2.2,1.1-3.3.3-1,.5-2,.5-2.9s-.2-1.1-.5-1.6c-.3-.4-.9-.6-1.7-.6s-1.3.3-2,.9c-.7.6-1.3,1.4-2,2.3-.7.9-1.3,1.9-1.8,2.9-.5,1-.9,2-1.2,2.8,0,0-.1.4-.3,1-.2.6-.4,1.3-.7,2.1-.3.8-.6,1.7-.8,2.5-.3.8-.5,1.5-.7,2.1-.2.6-.3.8-.3.8-.1.4-.4.6-.8.6s-.6-.1-.7-.4c-.2-.3-.2-.5,0-.8,0,0,0-.3.3-.9.2-.6.4-1.3.7-2.1.3-.8.6-1.7.8-2.5.3-.8.5-1.5.7-2.1.2-.6.3-.9.3-.9.4-1.3.8-2.4,1.1-3.4.3-1,.4-1.8.4-2.6s-.2-1.4-.5-1.8c-.3-.4-.9-.6-1.6-.6s-1.2.3-1.8.9c-.6.6-1.2,1.3-1.9,2.2-.2.3-.5.7-.8,1.4-.3.6-.7,1.3-1.1,2-.4.7-.7,1.4-1.1,1.9-.3.6-.5.9-.5,1.1l-2.9,8.2c0,.3-.2.4-.5.5-.2,0-.5.1-.7,0-.2,0-.4-.2-.5-.5-.1-.2-.1-.5,0-.7,1.1-3,2.2-6.1,3.3-9.1,1.1-3.1,2.2-6.1,3.3-9.1.1-.4.4-.6.8-.6s.6.1.7.4c.2.2.2.5.1.8-.2.4-.3.8-.4,1.2.6-.7,1.3-1.3,2-1.8.7-.4,1.4-.7,2.1-.7,1.3,0,2.2.4,2.9,1.1.7.7,1,1.7,1,2.8.6-1,1.4-1.9,2.4-2.7,1-.8,2-1.2,3-1.2,1.5,0,2.6.4,3.1,1.2.6.8.8,1.7.8,2.8s-.2,2.1-.5,3.2c-.3,1.1-.7,2.2-1.1,3.3-.4,1.1-.8,2.2-1.1,3.2-.3,1-.5,2-.5,2.9s.4,1.8,1.3,1.8,2-.6,3-1.9c.9-1.3,2-3.3,3.1-5.9.1-.4.4-.5.8-.5s.4,0,.6.3c.2.2.3.4.3.6ZM396.7,136.8c.4.2.5.5.5.8s0,.1,0,.2c0,0,0,.1,0,.2-1.4,3-2.9,5.3-4.6,6.7-1.6,1.4-3.5,2.2-5.7,2.2s-3.1-.5-4.1-1.6c-1-1.1-1.5-2.5-1.4-4.2,0-1.1.3-2.2.6-3.5.4-1.3.8-2.6,1.4-3.8.6-1.3,1.3-2.4,2.1-3.4.8-1,1.7-1.9,2.6-2.5.9-.6,1.9-.9,2.9-.9s1.9.3,2.6.8c.7.5,1,1.3,1,2.3s-.3,2.1-1,3.1c-.7.9-1.6,1.7-2.7,2.4-1.1.7-2.3,1.3-3.6,1.8-1.3.5-2.5.9-3.7,1.2-.3,1-.4,1.9-.5,2.8,0,1.2.3,2.2.9,2.9.7.7,1.6,1.1,2.9,1.1,1.8,0,3.3-.6,4.7-1.8s2.7-3.2,3.9-6c.1-.2.3-.4.5-.5s.5,0,.7,0ZM384.3,136.3c.9-.3,1.8-.6,2.8-1,1-.4,1.9-.9,2.8-1.4.9-.5,1.6-1.1,2.1-1.8.6-.7.8-1.4.8-2.2s-.2-.9-.5-1.1c-.4-.2-.8-.3-1.3-.3-.7,0-1.4.2-2.1.7s-1.3,1.1-1.9,1.9c-.6.8-1.1,1.6-1.6,2.5-.5.9-.9,1.7-1.2,2.6Z"/>
      <path class="cls-5" d="M222.9,119.2c.3-.8.7-1.6,1.2-2.4.5-.8,1.1-1.5,1.7-2,.6-.5,1.3-.8,2-.8s1.3.2,1.8.6c.5.4.7,1,.7,1.6s-.3,1.3-.9,1.9c-.6.6-1.3,1.1-2.3,1.5-.9.4-1.9.8-2.9,1-.5,1.2-1,2.7-1.6,4.4-.6,1.7-1.1,3.5-1.7,5.4-.6,1.9-1.1,3.7-1.6,5.4-.5,1.7-.8,3.2-1.1,4.5-.3,1.3-.4,2.1-.4,2.6,0,2.5,1,3.8,2.9,3.9.8,0,1.6-.4,2.5-1.2.8-.8,1.7-1.9,2.5-3.2.8-1.3,1.6-2.8,2.3-4.4.2-.4.5-1.2.9-2.1.4-1,.8-2.1,1.3-3.4.5-1.3,1-2.6,1.5-3.9.5-1.4.9-2.7,1.4-3.9.4-1.2.8-2.3,1.1-3.2.3-.9.5-1.5.5-1.8.1-.4.4-.7.9-.7s.5.1.7.4c.2.3.2.5.1.8-1.1,3.3-2.1,6.5-3.1,9.4-.9,2.9-1.7,5.5-2.3,7.8-.6,2.3-.9,4.1-.9,5.5s.2,2.1.6,2.9c.4.7,1.1,1.1,2,1.1s2.1-.5,3-1.4c.9-.9,1.7-2.2,2.5-3.7.8-1.6,1.5-3.3,2.1-5.2.7-1.9,1.3-3.9,1.9-5.9.7-2.1,1.4-4.2,2.1-6.2.7-2,1.5-3.8,2.3-5.4.8-1.6,1.8-2.9,2.8-3.9,1.1-.9,2.3-1.4,3.6-1.4s.5,0,.6.3c.2.2.3.4.3.6s0,.5-.3.6-.4.3-.6.3c-1,0-1.9.4-2.8,1.3-.8.9-1.6,2.1-2.4,3.5-.7,1.5-1.4,3.2-2,5-.6,1.9-1.3,3.8-1.9,5.8-.7,2.2-1.4,4.3-2.1,6.4-.7,2.1-1.5,3.9-2.4,5.6-.9,1.7-1.8,3-3,4-1.1,1-2.4,1.5-3.8,1.5s-2.6-.6-3.3-1.7c-.7-1.1-1.1-2.5-1.1-4.1s0-.6,0-.9c0-.3,0-.6,0-.9-1.1,2.1-2.4,3.9-3.7,5.4-1.3,1.4-2.7,2.2-4.1,2.2-1.6,0-2.8-.6-3.6-1.6-.8-1-1.1-2.3-1.1-4.1s.1-1.4.4-2.5c.3-1.2.6-2.5,1-4.1.4-1.6.9-3.2,1.4-5,.5-1.8,1.1-3.5,1.7-5.3.6-1.8,1.2-3.4,1.8-5-.4,0-.9.2-1.3.3-.4,0-.8.1-1.3.2-1.3.2-2.7.4-4.2.7-1.5.3-2.8.7-4.1,1.2-1.3.5-2.3,1.1-3.1,1.9-.8.8-1.2,1.8-1.2,3.1s.3,2,1,2.8c.7.7,1.4,1.1,2.4,1.1s.5,0,.7.3c.2.2.2.4.2.6s0,.4-.3.6c-.2.2-.4.3-.7.3-1,0-1.9-.3-2.6-.8-.8-.5-1.4-1.2-1.8-2.1-.4-.9-.6-1.8-.6-2.9,0-1.6.4-2.9,1.3-3.9.9-1,2-1.8,3.4-2.4,1.4-.6,2.9-1.1,4.6-1.4,1.6-.3,3.2-.6,4.8-.9.6-.1,1.3-.2,1.9-.3.6,0,1.2-.2,1.7-.3ZM225.1,118.5c.9-.2,1.7-.6,2.3-1,.7-.5,1-.9,1-1.3s-.2-.6-.6-.6-.9.3-1.4.9c-.5.6-.9,1.3-1.3,2Z"/>
      <path class="cls-5" d="M264.3,137.9c-.9,2.2-1.9,3.7-2.9,4.7-1,1-2.2,1.5-3.5,1.5s-2.3-.4-3.2-1.1c-.8,1-1.7,1.9-2.7,2.7-1,.8-2,1.1-3,1.1s-2.4-.4-2.9-1.2c-.5-.8-.8-1.8-.8-3s.2-3.2.6-4.6c.4-1.4.9-2.7,1.5-3.9.6-1.2,1.1-2.1,1.5-2.9,1.8-3,3.8-4.4,6-4.4,1.4,0,2.5.5,3.2,1.3.7.9,1.1,1.9,1.1,3.2s-.1,1.9-.4,3.1c-.3,1.2-.7,2.3-1.2,3.6-.5,1.2-1.1,2.4-1.7,3.5.5.6,1.2.9,2.1.9s1.7-.4,2.5-1.3c.8-.8,1.5-2.1,2.3-3.9.1-.4.4-.6.8-.6s.6.1.8.4c.2.3.2.5,0,.8ZM254.5,136.7c.3,0,.5.1.7.4.2.2.2.5.1.8,0,.2-.1.3-.1.5,0,.2,0,.3,0,.5.7-1.3,1.2-2.7,1.5-4,.4-1.4.6-2.5.6-3.5s-.2-1.6-.7-2c-.5-.5-1.1-.7-1.8-.7s-1.6.3-2.3,1c-.7.7-1.4,1.5-2,2.6-.4.6-.8,1.4-1.4,2.5-.5,1.1-1,2.3-1.4,3.6-.4,1.3-.6,2.7-.6,4.2s.1,1.4.4,1.9c.3.5.8.7,1.5.7s1.6-.4,2.4-1.1c.8-.7,1.6-1.6,2.3-2.6-.2-.6-.3-1.3-.3-2,0-.8,0-1.4.2-2,0-.5.4-.7.9-.7Z"/>
      <path class="cls-5" d="M279.4,136.8c.4.2.6.5.6.8s0,.2,0,.4c-1.4,3.2-2.7,5.4-3.9,6.8-1.2,1.4-2.5,2.1-3.9,2.1h0c-1,0-1.7-.3-2.3-1-.5-.7-.8-1.5-.8-2.6s.1-1.7.4-2.8c0-.3.2-.9.5-1.6.2-.8.5-1.6.8-2.5.3-.9.6-1.7.8-2.4.3-.7.4-1.2.5-1.4-1.1-.4-1.9-.6-2.5-.8-.5-.2-1-.4-1.3-.5s-.6-.3-.9-.4c0,.1,0,.3-.2.5,0,.2-.3.6-.5,1.2-.3.5-.6,1.3-1.1,2.4-.5,1.1-1.2,2.5-2,4.4-.2.3-.4.5-.8.5s-.3,0-.4,0c-.3-.2-.5-.5-.5-.8s0-.2,0-.4l3.4-7.4.5-1.3c-.6-.4-1.1-.9-1.6-1.5-.4-.6-.6-1.3-.6-2s.3-1.5.8-2c.5-.5,1.1-.7,1.8-.7s1.4.3,1.8.8c.4.5.7,1.2.7,2s0,.7-.1,1c0,.3-.3.9-.5,1.7.6.3,1.2.5,1.9.8.7.2,1.3.5,2,.7.3,0,.6.2.9.3.3,0,.5.2.8.3.2,0,.4.3.5.5,0,.2.1.5,0,.7-.1.3-.4.9-.6,1.8-.3.8-.6,1.7-.9,2.6-.3.9-.6,1.8-.9,2.6-.3.8-.4,1.3-.5,1.5-.1.4-.2.9-.3,1.2,0,.4,0,.7-.1,1.1,0,.5,0,1,.3,1.3.2.3.5.5,1,.5,1,0,2-.6,2.9-1.9.9-1.3,2-3.2,3.2-6,.2-.4.5-.6.8-.6s.2,0,.4,0ZM267,126.5c0-.4,0-.6-.2-.8-.1-.1-.3-.2-.5-.2-.5,0-.8.3-.8.8,0,.8.3,1.4,1,2,.1-.3.2-.6.3-1,0-.3.1-.6.1-.8Z"/>
      <path class="cls-5" d="M297.6,136.8c.4.2.6.5.6.8s0,.2,0,.4c-.8,1.8-1.7,3.3-2.5,4.6-.8,1.3-1.8,2.4-2.8,3.1-1,.8-2.1,1.1-3.4,1.1s-1.8-.3-2.3-1c-.5-.7-.8-1.6-.8-2.8-.7,1-1.6,1.9-2.4,2.6-.9.7-1.9,1.1-2.9,1.1s-2.1-.4-2.6-1.3c-.6-.9-.8-2-.8-3.2s.2-2.3.5-3.7c.3-1.4.8-2.8,1.3-4.1.6-1.4,1.3-2.7,2.1-3.8.8-1.2,1.7-2.1,2.6-2.8.9-.7,1.9-1.1,2.9-1.1s1.7.2,2.4.6c.6.4,1.1.9,1.5,1.5l.8-2.2,2.3-6.5c.1-.4.4-.5.8-.5s.6.1.8.4c.2.3.2.5,0,.8,0,.2-.2.7-.5,1.6-.3.8-.7,1.9-1.1,3.1-.4,1.2-.9,2.5-1.3,3.8-.5,1.3-.9,2.6-1.3,3.8-.4,1.2-.8,2.2-1.1,3-.3.8-.5,1.3-.5,1.5-.3,1-.6,2-.9,3.1-.3,1.1-.5,1.9-.5,2.5s.1.9.3,1.3c.2.3.6.5,1,.5,1,0,1.9-.4,2.8-1.1.8-.7,1.6-1.7,2.3-2.9.7-1.2,1.4-2.5,2-4,.2-.3.5-.5.9-.5s.2,0,.3,0ZM280.8,145.1c.8,0,1.6-.3,2.4-1,.8-.7,1.4-1.6,2.1-2.7.6-1.1,1.2-2.2,1.7-3.5.5-1.3,1-2.4,1.4-3.5.2-.5.4-.9.5-1.3.2-.4.3-.8.5-1.1,0,0,0-.2,0-.3,0-1-.3-1.8-.8-2.3-.5-.5-1.1-.8-1.9-.8-.8,0-1.6.4-2.3,1-.7.7-1.4,1.5-2.1,2.5-.6,1-1.2,2.2-1.7,3.4-.5,1.2-.8,2.3-1.1,3.5-.3,1.1-.4,2.1-.4,3,0,.9.1,1.7.4,2.3.3.6.7.9,1.3.9Z"/>
      <path class="cls-5" d="M340.1,136.8c.4.2.5.5.5.8s0,.2,0,.4c-1.3,3.1-2.9,5.6-4.8,7.6-1.9,2-4.4,3.4-7.5,4.3-2.1,5.8-4.6,8.8-7.7,8.9-1.3,0-2.3-.3-3-1.1-.8-.8-1.1-1.8-1.1-3s.6-2.5,1.7-3.4c1.1-1,2.9-1.7,5.5-2.1.5,0,1.1-.2,1.6-.3.6-.1,1.1-.2,1.7-.4l2.3-6.4c-1.3,1.7-2.7,3.1-4.2,4.2-1.5,1-3.1,1.6-4.9,1.6-2.1,0-3.7-.7-4.7-1.9-1-1.2-1.5-2.8-1.5-4.9s.2-2.7.5-4.3c.4-1.6.8-3.1,1.2-4.4-2.1-.5-3.9-1.5-5.2-2.9-1.3-1.4-1.9-3.2-1.9-5.4s0-1.6.3-2.5c.2-.8.4-1.6.8-2.4.3-.7.5-1.3.9-1.8.4-.6.7-1.1,1.1-1.6.2-.2.4-.3.7-.3s.4,0,.6.2c.2.2.3.4.3.7s0,.4-.2.6c-.7.8-1.3,1.8-1.7,2.9-.3.6-.5,1.3-.7,2-.2.7-.2,1.4-.2,2.1,0,1.9.6,3.4,1.7,4.4,1.1,1.1,2.6,1.8,4.3,2.2,1.1-3.1,2.3-5.7,3.6-8,1.3-2.3,2.8-4,4.3-5.3,1.5-1.3,3.1-1.9,4.7-1.9s3.3.6,4.3,1.7c1.1,1.1,1.6,2.6,1.6,4.4,0,1.8-.6,3.4-1.5,4.8-.9,1.4-2.1,2.6-3.6,3.5-1.5,1-3.1,1.7-4.9,2.2-1.8.5-3.7.7-5.5.7s-.6,0-.9,0c-.3,0-.6,0-1,0-.5,1.4-.9,2.9-1.3,4.5-.3,1.5-.5,2.9-.5,3.9,0,1.7.4,3,1.2,3.7.8.8,1.9,1.2,3.3,1.2,1.6,0,3.1-.5,4.4-1.6,1.4-1.1,2.7-2.5,3.8-4.2,1.2-1.6,2.2-3.4,3.1-5.4.9-2,1.8-4,2.6-6.1l.4-1.1c0-.3.2-.4.3-.5.1,0,.3-.1.5-.1.4,0,.6.1.8.4.2.3.2.5,0,.8l-3.1,8.3c-.3,1-.7,2-1.1,3-.4,1-.8,2.1-1.1,3.3l-1.8,5.1c2.4-.8,4.4-2.2,6-4,1.6-1.9,2.9-4,3.9-6.5.2-.4.5-.6.8-.6s.2,0,.4,0ZM318,131c1.6.2,3.3.1,5.1-.3,1.7-.4,3.3-1,4.8-1.9,1.5-.9,2.7-1.9,3.6-3.1.9-1.2,1.4-2.6,1.4-4.1s-.4-2.3-1.2-3.1c-.8-.8-1.8-1.2-3-1.2s-2.6.6-3.9,1.7c-1.3,1.1-2.5,2.7-3.6,4.8-1.1,2-2.2,4.4-3.2,7.2ZM326.2,150.5c-.4,0-.8.2-1.2.3-.4,0-.8.2-1.1.2-2,.3-3.4.8-4.3,1.4-.9.6-1.4,1.4-1.5,2.4,0,.7.2,1.3.7,1.8.5.4,1,.7,1.8.6,2.3,0,4.2-2.2,5.6-6.6Z"/>
      <path class="cls-5" d="M357.1,136.8c.4.2.6.5.6.8s0,.2,0,.4h0c-.4,1-.9,2-1.4,3-.5,1-1.1,2-1.7,2.9-.6.9-1.3,1.6-2.1,2.2-.8.6-1.6.8-2.6.8s-1.8-.3-2.3-1c-.5-.7-.8-1.5-.8-2.6-1.7,2.4-3.5,3.6-5.3,3.6s-2.1-.4-2.6-1.3c-.6-.9-.8-2-.8-3.2s.2-2.3.5-3.7c.3-1.4.8-2.8,1.4-4.1.6-1.4,1.3-2.7,2-3.8.8-1.2,1.6-2.1,2.6-2.8.9-.7,1.9-1.1,2.9-1.1,1.8,0,3.1.8,3.9,2.3.1-.4.3-.7.4-1,.1-.3.2-.6.3-.9.2-.4.4-.5.9-.5s.6.1.7.4c.2.3.2.5,0,.8l-2.1,5.7c-.8,2.1-1.4,4.1-2,5.8-.6,1.7-.9,3.1-.9,4s.4,1.8,1.3,1.8,1.3-.2,1.8-.7c.6-.5,1.1-1.1,1.6-1.9.5-.8,1-1.6,1.4-2.5.4-.9.8-1.7,1.2-2.5h0c.2-.5.5-.7.8-.7s.2,0,.4,0ZM341.5,145.1c.8,0,1.6-.3,2.4-1,.8-.7,1.4-1.6,2.1-2.7.6-1.1,1.2-2.2,1.7-3.5.5-1.3,1-2.4,1.4-3.5l1-2.7c0-1-.3-1.8-.8-2.3-.5-.5-1.1-.8-1.9-.8-.8,0-1.6.4-2.3,1-.7.7-1.4,1.5-2.1,2.5-.6,1-1.2,2.1-1.7,3.4-.5,1.2-.8,2.4-1.1,3.5-.3,1.1-.4,2.1-.4,3,0,.9.1,1.7.4,2.3.3.6.7.9,1.3.9Z"/>
      <path class="cls-5" d="M383.8,137.6s0,.2-.1.5c-.4.9-.9,1.8-1.4,2.9-.5,1-1,2-1.7,2.9-.6.9-1.3,1.6-2.1,2.2-.8.6-1.6.8-2.6.8s-1.8-.3-2.3-1c-.5-.7-.8-1.5-.8-2.6s.2-2,.5-3.1c.3-1.1.7-2.2,1.1-3.3.4-1.1.8-2.2,1.1-3.3.3-1,.5-2,.5-2.9s-.2-1.1-.5-1.6c-.3-.4-.9-.6-1.7-.6s-1.3.3-1.9.9c-.7.6-1.4,1.4-2,2.3-.7.9-1.3,1.9-1.8,2.9-.5,1-.9,2-1.2,2.8,0,0-.1.4-.4,1-.2.6-.4,1.3-.7,2.1-.3.8-.6,1.7-.9,2.5-.3.8-.5,1.5-.7,2.1-.2.5-.3.8-.3.8-.1.4-.4.6-.9.6s-.6-.1-.8-.4c-.2-.3-.2-.5-.1-.8,0,0,0-.3.3-.9.2-.6.4-1.3.7-2.1.3-.8.6-1.7.9-2.5.3-.8.5-1.5.7-2.1.2-.6.3-.9.3-.9.4-1.3.8-2.4,1.1-3.4.3-1,.4-1.8.4-2.6s-.2-1.4-.5-1.8c-.3-.4-.9-.6-1.6-.6s-1.2.3-1.8.9c-.6.6-1.3,1.3-1.9,2.2-.2.3-.5.8-.8,1.4-.3.6-.7,1.3-1.1,2-.4.7-.7,1.4-1,2-.3.6-.5.9-.5,1.1l-2.9,8.2c0,.3-.3.4-.5.5-.2,0-.4.1-.7,0-.2,0-.4-.2-.5-.5-.1-.2-.1-.5,0-.7,1.1-3,2.2-6.1,3.3-9.1,1.1-3.1,2.2-6.1,3.3-9.2.1-.4.4-.6.9-.6s.5.1.7.4c.2.3.2.5.1.8-.2.4-.3.7-.4,1.1.6-.7,1.3-1.3,1.9-1.8.7-.4,1.4-.7,2.1-.7,1.3,0,2.2.4,2.9,1.1.7.7,1,1.7,1,2.8.6-1,1.4-1.9,2.4-2.7,1-.8,2-1.2,3-1.2,1.5,0,2.6.4,3.1,1.1.6.8.9,1.7.9,2.8s-.2,2.1-.5,3.1c-.3,1.1-.7,2.2-1.1,3.3-.4,1.1-.8,2.2-1.1,3.2-.3,1-.5,2-.5,2.9s.4,1.8,1.3,1.8,2-.6,3-1.9c.9-1.3,2-3.3,3.1-5.9.1-.4.4-.6.9-.6s.4,0,.6.3c.2.2.3.4.3.6Z"/>
      <path class="cls-5" d="M396.7,136.8c.4.2.5.5.5.9s0,.1,0,.2c0,0,0,.1,0,.2-1.4,3.1-2.9,5.3-4.6,6.8-1.6,1.4-3.5,2.1-5.7,2.1s-3.1-.5-4.1-1.6c-1-1.1-1.5-2.5-1.4-4.2,0-1.1.3-2.3.6-3.5.4-1.3.8-2.6,1.4-3.8.6-1.3,1.3-2.4,2.1-3.4.8-1.1,1.7-1.9,2.6-2.5.9-.6,1.9-.9,2.9-.9s1.9.3,2.6.8c.7.5,1,1.3,1,2.3s-.3,2.2-1,3.1c-.7.9-1.6,1.7-2.7,2.4-1.1.7-2.3,1.3-3.6,1.8-1.3.5-2.5.9-3.7,1.1-.3,1-.5,1.9-.5,2.8,0,1.2.3,2.2.9,2.9.7.7,1.6,1.1,2.9,1.1,1.8,0,3.3-.6,4.7-1.8,1.4-1.3,2.7-3.3,3.9-6,.1-.2.3-.4.5-.5.2,0,.4,0,.7,0ZM384.3,136.3c.9-.3,1.8-.6,2.8-1,1-.4,1.9-.9,2.8-1.4.9-.5,1.6-1.1,2.1-1.8.6-.7.8-1.4.8-2.2s-.2-.9-.6-1.1c-.4-.2-.8-.3-1.3-.3-.7,0-1.4.2-2.1.7-.7.5-1.3,1.1-1.9,1.9-.6.8-1.1,1.6-1.6,2.5-.5.9-.9,1.7-1.2,2.6Z"/>
      <path class="cls-3" d="M43.5,29c-.2-.8-.2-1.5.2-2.3.4-.8.8-1.4,1.2-2,.8-1.2,1.7-2.1,2.9-2.9.3-.3.5-.5.7-.6,1.5-1.1,3.2-1.9,4.9-2.4,1.8-.5,3.5-.6,5.3-.1,1.5.4,2.9,1,4.1,1.9,1.2.9,2,2.1,2.6,3.7.2.6.2,1.2-.1,1.7-.3.5-.7,1-1.2,1.4-1.9,1.4-4,2.3-6.1,2.8-.7.8-1.6,1.3-2.8,1.7-1.2.3-2.3.5-3.4.5s-1.8,0-2.7-.2c-.9-.2-1.8-.4-2.6-.7-.5-.2-1.1-.5-1.8-.9-.6-.5-1-1-1.1-1.5ZM51.3,31.8c1.7,0,2.8-.2,3.4-.5.5-.3.8-.5.7-.5-.7.2-1.5.3-2.3.4-.8,0-1.9,0-3.3-.3-1.7-.4-2.9-1.2-3.4-2.3-.6-1.2-.6-2.4,0-3.7-.5.6-1.1,1.4-1.5,2.2-.2.5-.3,1-.3,1.5s.2.8.7,1.2c.8.6,1.5,1.1,2.2,1.3,1.2.4,2.5.7,3.9.8ZM63.4,89.8c-.5.9-1.4,1.6-2.4,2,0,.4,0,.8-.1,1.2-.2.4-.5.8-1,1-1.4.7-2.9.9-4.5.6-1.6-.3-2.9-1-4-2.1l-.2-.4c-.5-.2-1.1-.6-1.7-1-1.3-1.2-2-2.6-2.3-4.2-.3-1.6-.5-3.3-.7-4.9-.5-4.3-1-8.6-1.2-12.9-.3-4.3-.4-8.6-.3-12.9v-6.3c0-2.1.1-4.2.4-6.3.2-1.1.4-2.1.8-3.2.4-1,.9-1.9,1.6-2.6.2-.2.3-.4.5-.6.2-.2.3-.4.5-.5.8-.5,1.9-1.2,3.3-2,1.4-.8,2.7-1.3,4-1.4,1.3-.1,2.3.6,2.9,2.1.4,0,.8,0,1.2.2.4.2.6.6.7,1.2,0,2.2,0,4.3-.1,6.4,0,2.1-.1,4.2-.1,6.4s0,4.2.1,6.3c0,2.1.2,4.3.3,6.4,0,.4,0,.8,0,1.3,0,.5.1,1,.2,1.6,0,0,.2.2.3.9.1.7.2,1.4.3,2,0,.7.2,1,.3,1,0-2.8-.1-5.9-.2-9.3,0-3.4,0-6.8,0-10.2,0-3.4.1-6.5.3-9.2,0-.2.1-.3.4-.3.3,0,.4,0,.4,0-.2,8.3-.1,16.5.4,24.8.5,8.2,1.3,16.5,2.3,24.8,0,.5-.2.8-.8.9-.6,0-1-.2-1.1-.8ZM50.5,42.5c-.8,2.6-1.3,5.4-1.5,8.3-.1,2.9-.2,5.7-.4,8.4v1.1h0v.3c.2,1.4.3,2.8.5,4.2.2,1.4.3,2.8.5,4.2h.3c0-2.6,0-5.3,0-7.8,0-2.6,0-5.2,0-7.8,0-2,0-4,.3-6.1.2-2.1.6-4,1.2-5.9h-.1c-.5.4-.8.8-.8,1.1Z"/>
      <path class="cls-4" d="M121.9,53.8c0,1,.2,2,.4,2.9.2.9.4,1.8.5,2.8.2.8.1,1.5-.3,2.3-.4.7-1,1.2-1.9,1.5-1.8.5-3.4,0-4.5-1.2-1.2-1.2-2-2.9-2.6-4.9-.6-2-1-3.9-1.2-5.7,0,0-.1,0-.1,0s0,0-.1,0c-1.7-2.5-3.8-4.6-6.2-6.5-2.4-1.9-5-3.4-7.8-4.7-2.9-1.3-6-2.3-9.1-3l4.8,4.5c1.8,1.8,3.7,3.6,5.6,5.5,1.9,1.8,3.6,3.7,5.3,5.7,1.7,1.8,3.4,3.6,5.1,5.4,1.7,1.8,3.3,3.7,4.8,5.6,1.1,1.3,2,2.7,2.8,4.2.8,1.5,1.3,3,1.6,4.5.6,1.5,1.1,3,1.4,4.5.3,1.5.4,3,.1,4.6,0,2.5-.9,4.7-2.4,6.7-1.5,2-3.5,3.5-5.8,4.7-2.3,1.2-4.7,1.8-7.2,2h-.4c-1.9.3-4,.4-6.1.2-2.1-.2-4.1-.6-6-1.1-2.6-.5-5-1.5-7.2-3-.2,1-.6,2-1,2.9-.4.9-1,1.6-1.8,2.3-.5.5-1.2.8-2,.8s-1.5-.3-2.1-.8c-.6-.6-1.2-1.4-1.8-2.4-.5-1-.9-2-1-3-.3-.4-.6-.9-.8-1.4-.2-.5-.4-1.1-.5-1.6-.3-3.3-.8-6.5-1.5-9.8-.7-3.3-1.4-6.5-2.3-9.6-.5-1.8-.8-3.6-1.1-5.4-.3-1.9-.5-3.7-.7-5.6-.2-1.6-.5-3.3-.6-5-.2-1.8-.1-3.5.2-5.2.2-1.1.8-2.1,1.6-3,.8-.9,1.8-1.5,3-1.6,1.4-.2,2.6,0,3.7.6s1.9,1.5,2.3,2.9c1.3,3.8,2.1,7.7,2.7,11.7.5,4,1.5,8,2.8,11.8.5,1.4,1.2,2.8,1.9,4.2.7,1.4,1.6,2.6,2.6,3.7.6.5,1.2,1.1,1.8,1.8.6.6,1.3,1.2,2,1.7.7.2,1.4.4,2.1.5.7.1,1.4.2,2.1.3,2.4.2,4.9.2,7.4,0,.8,0,1.6-.2,2.6-.4,1-.2,1.7-.6,2.1-1.3.2-.2.4-.6.4-1.1.3-.6.3-1.4,0-2.3-.3-.9-.6-1.6-.9-2.1,0-.3-.2-.6-.4-.9-.2-.3-.3-.6-.5-.9-.5-.7-1.1-1.4-1.6-2.1-.5-.7-1.1-1.4-1.7-2.1-1.8-2.2-3.6-4.3-5.5-6.4-1.8-2.1-3.8-4.2-5.8-6.2-.8-.8-1.6-1.7-2.3-2.5-.8-.9-1.6-1.7-2.4-2.4l-1.8-1.4c-2.7-2.3-5.3-4.6-7.8-7-2.5-2.4-4.8-5.1-7-7.8-1-1.5-1.9-3-2.7-4.7-.8-1.7-1-3.5-.5-5.4.5-1.9,1.5-3.5,3-4.5,1.6-1.1,3.3-1.5,5.2-1.4,1.3,0,2.6.3,3.8.6,1.2.3,2.5.7,3.7,1.1.5-.2,1.1-.1,1.8.1,3.2.9,6.2,2.1,9,3.4,2.9,1.3,5.7,2.8,8.4,4.6,1.3.8,2.6,1.6,3.8,2.5,1.3.9,2.4,1.9,3.6,3l.6.6v-3c0-1,0-2-.1-3,0-1.6.6-2.9,1.7-4,1.2-1.1,2.5-1.7,4-1.7s3,.6,4,1.7c1,1.1,1.5,2.4,1.7,4,.4,2.7.4,5.5,0,8.3-.4,2.8-.7,5.6-.9,8.3,0,2.9,0,5.7,0,8.5Z"/>
      <path class="cls-8" d="M168,92.5c-.5-.2-1-1-1.6-2.4-.6-1.5-1.2-3.3-1.9-5.5-.7-2.2-1.3-4.4-1.9-6.7-.6-2.3-1.1-4.4-1.6-6.3-.5-1.9-.8-3.2-.9-4.1h-9.1c-.8,3.6-1.6,7.1-2.2,10.5-.6,3.4-1.1,6.9-1.4,10.5,0,.7-.3,1.1-1,1.1s-.9-.4-.9-1.1c.3-3.5.7-7,1.3-10.5.6-3.5,1.4-7,2.5-10.4h-1c-.4,1.4-.8,3.1-1.2,5.1-.4,2-.7,3.9-1.1,5.8-.3,1.9-.6,3.5-.9,4.8-.2,1.3-.4,1.9-.4,1.9l-.7,5.2c-.2,2.6-1.1,4.5-2.7,5.7-1.5,1.2-3.2,1.6-5.1,1.4-1.8-.2-3.4-1.1-4.7-2.6-1.3-1.6-1.7-3.7-1.3-6.4.5-3.4,1-6.8,1.6-10.2.6-3.4,1.4-6.8,2.2-10.1-.5,0-1.1.1-1.6.2s-1,0-1.5,0c.2-.4.2-.7.1-1-1.9-.5-3.2-1.5-4.1-3-.8-1.6-1.1-3.3-.7-5.2.4-1.9,1.5-3.6,3.3-5.2,1.8-1.6,4.4-2.6,7.9-3.2.8-3.9,1.8-7.7,2.8-11.4,1-3.8,2.3-7.4,3.7-11,.7-1.6,1.5-3.2,2.3-5.1.9-1.8,1.9-3.4,3.2-4.8,1.3-1.4,2.9-2,4.8-2,1,0,2,.2,3,.8,1,.6,1.8,1.4,2.2,2.3,1.7,0,3.1.7,4.2,1.8s1.8,2.6,1.9,4.5c.2,2.3.3,4.7.6,7,.2,2.4.5,4.7.7,6.9,0,0,.2.1.2.1,0-2,.2-4,.3-6,.1-2,.3-3.9.5-5.9,0-.3,0,.4.2,2.1.1,1.7.3,3.9.4,6.6.2,2.7.3,5.3.5,8,.2,2.7.3,4.9.6,6.7,2.2.2,4,1,5.2,2.3,1.2,1.3,2,2.8,2.3,4.4.3,1.7.2,3.3-.5,4.9-.6,1.6-1.7,2.9-3.4,3.9.8,3.4,1.6,7.3,2.4,11.6.8,4.3,1.5,8.2,2,11.6.3,2.6,0,4.6-.6,6-.7,1.4-1.7,2.1-2.9,2.3-1.2.2-2.4-.3-3.6-1.3-1.2-1-2.1-2.5-2.9-4.6ZM150.8,52.6c.8-.2,1.9-.3,3.3-.3,1.4,0,2.4,0,3.2-.2-.2-1-.3-2.4-.5-4.3-.2-1.9-.4-3.9-.7-6-.3-2.1-.6-4.1-1-5.9-.9,3.3-1.7,6.2-2.4,8.7-.7,2.6-1.3,5.2-1.9,7.9Z"/>
      <path class="cls-7" d="M245.4,90.2c-.5,1.6-1.4,2.8-2.8,3.5-1.4.7-2.9,1.2-4.6,1.4-1.7.2-3.3.3-4.8.3-2.4,0-4.8,0-7.2-.3-2.4-.3-4.8-.5-7.2-.5-3.3-.2-6.6-.1-9.9,0-3.3.2-6.5.5-9.8.9-.8.5-1.9.8-3.1.8s-1,0-1.3-.1c-.8,0-1.5.2-2.3.4-.7.2-1.5.3-2.1.5-1.1.2-2.1,0-3-.5-.9-.5-1.5-1.2-1.9-2.3,0-.2-.1-.3-.1-.6-.5-.7-.7-1.5-.7-2.3,0-1.3.4-2.4,1.3-3.1.9-.8,1.9-1.2,3.1-1.3.2,0,.3,0,.4-.1,0-3.5-.3-7-.5-10.4-.3-3.5-.6-7-.9-10.5-1.2-.4-2.3-1-3.1-1.9-.8-.9-1.2-2-1.2-3.5s.3-2.2.9-3c.6-.9,1.4-1.5,2.4-2,0,0,0-.1,0-.2,0,0,0,0,0,0-.2-2.9-.5-5.9-.7-8.8-.2-2.9-.5-5.8-.8-8.6-.5-.3-1.1-.7-1.6-1-.5-.4-1-.7-1.5-1-.8-.8-1.5-1.7-2.3-2.7-.8-1-1.3-2.1-1.5-3.3-.2-1.2,0-2.3.8-3.4,1.2-1.5,2.6-2.5,4.5-3,1.8-.5,3.6-.8,5.4-.8,3.6,0,7.1.6,10.3,1.8,3.5,1.2,6.9,2.6,10.2,4.4,1,.5,2.6,1.5,4.9,2.9,2.3,1.4,4.8,3.1,7.5,5.1,2.8,2,5.4,4.2,8,6.4,2.6,2.3,4.8,4.6,6.5,6.9,1.8,2.3,2.8,4.4,3,6.5.3,2.1-.6,3.8-2.5,5.3-.8.6-1.6,1.2-2.4,1.6-.8.4-1.8.6-2.8.5-1.3-.2-2.6-.3-3.8-.5-1.2-.2-2.6-.3-4.2-.5l-5.6-.4c.4.2.7.3,1,.5.3.2.6.4.9.5,1.4.8,2.7,1.7,4.1,2.6,1.3.9,2.6,1.8,3.8,2.8,5.3,4.2,10.1,8.8,14.3,13.7,1.1,1,1.9,2.1,2.6,3.3.7,1.2.8,2.5.4,3.9ZM220.7,51.2c-.7-.8-1.4-1.5-2.1-2.2-.7-.7-1.5-1.4-2.3-2.1-.8-.6-1.4-1.2-2-1.8s-1.2-1-1.8-1.4c-1.6-1.1-3.3-2.1-5.1-3.1-1.7-1-3.4-1.7-4.9-2.3-.5-.2-1.1-.3-1.6-.5-.5-.2-1-.3-1.6-.4l-1.9-.4h-.4c.5,2.5,1,5,1.3,7.5.3,2.5.7,5.1,1,7.6,3.8-.5,7.6-.9,11.4-1,3.3,0,6.6,0,9.9,0ZM227,81.7c-1.8-1.6-3.6-3-5.6-4.4-1.9-1.4-3.9-2.7-6-3.8-2-1.1-4.1-2.1-6.3-3.2s-4.4-1.9-6.7-2.5c-.3-.2-.6-.2-.9-.2l1.4,10.3c.2,1.2.3,2.3.5,3.5.2,1.2.3,2.3.4,3.5,2.6-.3,5.3-.5,7.9-.7,2.3,0,4.6,0,7,0,2.3.1,4.6.4,7,.8,2,.2,4,.6,6,1-.7-.8-1.4-1.5-2.1-2.3-.7-.7-1.5-1.4-2.4-2Z"/>
      <path class="cls-1" d="M245.4,34.7c3.9-2,7.9-3.7,12.1-5.1,4.2-1.4,8.4-2.6,12.5-3.7l2.7-.7c2.4-.5,4.8-.9,7.2-1.3,2.4-.4,4.8-.7,7.3-.9.5,0,1.1-.1,1.6-.1h1.6c-2.3.5-4.5,1.1-6.9,1.7-2.3.6-4.6,1.1-6.9,1.7-3.9.9-7.9,1.8-11.8,2.8-3.9,1-7.8,2.1-11.7,3.4-1.3.4-2.6.8-3.9,1.3-1.3.5-2.6,1.1-3.9,1.7-.3-.2-.3-.4,0-.7ZM310.5,81.9c-.2.7-.5,1.1-1.2,1.2-4.3.8-8.5,1.7-12.8,2.8-4.3,1.1-8.5,2.4-12.6,3.9-1.9.7-3.9,1.4-5.9,2.1-2,.7-3.9,1.5-5.9,2.3h-.1c0,0-.2.1-.4.2-.2,0-.3,0-.5.2-.6.3-1.3.6-1.9.8-.7.2-1.3.5-1.9.8h-.1c-.5.4-1.3.8-2.6,1.3-1.3.5-2.5.9-3.6,1.2-1.1.3-1.7.5-1.7.5,0,0-.1,0-.4,0-.3,0-.5,0-.7,0-.9.2-1.9.2-2.8,0-.9-.2-1.6-.7-2.1-1.8-.2-.5-.3-1-.1-1.6-1.5-.6-2.6-1.7-3.4-3.2-.8-1.5-.9-3-.4-4.5-.3-2-.6-4-.8-6.1-.2-2.1-.4-4.1-.5-6.1l-1.4-13.9-1.4-13.2c-1.5-1.6-2.1-3.5-1.9-5.7.2-2.2,1.2-4,2.9-5.5,0-.2.2-.3.2-.5,0-.2.2-.3.3-.5,1.2-.5,2.5-1,3.7-1.5,1.2-.5,2.5-.9,3.7-1.3,3.9-1.3,7.8-2.5,11.7-3.4,3.9-1,7.8-1.8,11.8-2.6,3.1-.7,6.2-1.4,9.2-2.3,3-.8,6-1.6,9.1-2.4.4,0,.8.1,1.2.2.4,0,.8.1,1.1.3l1.9.7c.3.2.6.5.9.8.3.3.6.5.9.8.4,1.2.7,2.5.8,3.7.2,1.2.1,2.4-.1,3.5l-5.8,1.7c-1.2.4-2.5.8-3.9,1.2-1.3.4-2.7.8-4,1.2-.3.2-.5.2-.7.2-1.5.4-3.2.9-5.2,1.5-2,.6-3.9,1.1-5.9,1.7-2,.6-3.7,1.1-5.1,1.6-1.4.5-2.2.8-2.5.9-1.9.6-3.7,1.3-5.6,2-1.8.7-3.7,1.4-5.5,2.2l-.2.2c0,.4.2,1,.3,1.9.1.9.2,1.7.4,2.5.1.8.2,1.3.2,1.5,3.3-1.4,6.5-2.8,9.7-4.1,3.2-1.4,6.5-2.7,9.8-3.9,1.9-.5,3.7-.9,5.6-1.4,1.9-.5,3.8-1,5.6-1.6l1.5-.3c.7-.2,1.4-.3,2-.3.7,0,1.3-.1,2-.2,1.5,0,2.9,0,4.2.3,1.3.3,2.4,1.1,3.1,2.5.2.2.3.3.3.5,0,.2.1.3.2.5.2.2.3.5.3.7,0,.2.2.5.2.7,0,0,.2.1.3.1,1.1.5,1.7,1.5,2,2.9.2,1.1,0,2.2-.5,3.3s-1.4,2-2.5,2.5c-1.2.5-2.5.9-3.8,1-1.3.1-2.6.3-3.9.6-1.4.2-2.8.5-4.3.8-1.4.3-2.8.6-4.2,1-2.8.8-5.6,1.6-8.3,2.5-2.7.9-5.5,1.9-8.2,3.1-1.7.7-3.4,1.4-4.9,2.2-1.6.8-3.2,1.6-4.8,2.4l.7,7.5v.5l.4-.2c1.3-.6,2.6-1.2,3.9-1.7,1.3-.5,2.5-1,3.8-1.6l9.9-3.8c.8-.4,1.7-.7,2.6-1,.9-.3,1.8-.6,2.6-.9,1.4-.5,2.8-1.1,4.2-1.6,1.4-.5,2.8-1,4.2-1.5l4.5-1.4c.6-.2,1.2-.4,1.9-.6.6-.3,1.3-.5,1.9-.6,2.2-.5,4.1-.3,5.5.6,1.4.8,2.6,2.1,3.4,3.7.9,1.6,1.5,3.4,1.9,5.3.4,1.9.7,3.7.8,5.3,0,1-.1,1.9-.5,2.8-.4.8-1,1.5-1.7,2ZM282.5,57.3c-1.8.5-3.6,1.1-5.4,1.6-1.8.5-3.6,1.1-5.4,1.7-1.2.3-2.3.6-3.4,1-1.1.3-2.2.7-3.3,1-.2,1.3-.8,2.4-1.9,3.3,2.9-1.5,5.8-2.8,8.8-3.9,3-1.2,5.9-2.3,8.8-3.5.6-.3,1.3-.6,2-.8v-.3ZM256.8,97.5c.9,0,1.8.1,2.9,0s1.7,0,1.9-.2c.2,0,.3,0,.3-.1.5-.2.9-.5,1.4-.7.5-.2.9-.5,1.3-.7.9-.5,1.8-.9,2.7-1.4.9-.5,1.8-.9,2.6-1.4v-.2c-1,.4-2.1.8-3.1,1.1-1.1.4-2.2.8-3.3,1.2-1.1.4-2.2.8-3.3,1.2-1.1.4-2.3.8-3.4,1.1Z"/>
      <path class="cls-2" d="M364,92.6c-6.6-.5-13.2-.4-19.9.2-6.7.6-13.2,1.8-19.6,3.5-1.4.3-2.7,0-4-.9-1.3-.9-1.9-2.1-1.8-3.6,0-.6,0-1.2,0-1.7,0-.5,0-1.1,0-1.6.2-2.3.3-4.5.3-6.8s0-4.6.1-6.8c-.3-2.7-.6-5.4-.9-8.2-.3-2.8-.6-5.5-.9-8.3-.5-5.5-1.1-11-1.6-16.5-.5-5.5-.9-11-1.3-16.4-.2-1.9.5-3.4,1.9-4.4,1.4-1,3-1.3,4.8-1,.6,0,1.2.2,1.8.4.5.2,1,.4,1.5.6.5,0,1.1.2,1.6.4.5.2,1,.5,1.5.9.9,4.2,1.6,8.4,2.1,12.5l.6,3.4c0-1.4,0-3,0-4.8,0-1.8-.1-3.2-.2-4.2,0-1.3-.2-2.6-.5-3.8-.2-1.2-.7-2.4-1.3-3.6,0-.2,0-.3.1-.3.2,0,.3,0,.4.1,1.5,2,2.5,4.3,2.8,6.9.4,2.6.7,5.1,1,7.6.3,2.9.6,5.9.8,8.8.2,2.9.5,5.9.7,8.8.5,6.1.8,12.3,1,18.5l.4,5.9h0s0,0,.2-.1v.2c0,.2,0,.3,0,.4,0,0,0,.2,0,.3,2.7-.7,5.5-1.2,8.4-1.6,2.9-.3,5.7-.6,8.6-.6,1.2,0,2.3,0,3.5,0,1.2,0,2.3,0,3.4,0,.8,0,1.7.2,2.7.3.9.2,1.7.5,2.4,1,.6.5,1.2,1,1.8,1.7.5.7.8,1.4.8,2.3s0,.6,0,.9c0,.3,0,.6-.2.9.2.3.4.6.7.9.2.3.5.6.7,1,.5.9.7,1.9.5,3-.2,1.1-.7,2-1.5,2.7-.8.7-1.7,1.1-2.9,1ZM316.8,29.5c.2,1,.3,2.1.3,3.1l.3,3.3c.4,4.2.7,8.3.9,12.5.2,4.1.5,8.3.8,12.4v-6.4c0-2.9-.1-5.7-.2-8.5,0-2.8-.1-5.7-.2-8.5,0-1.4-.2-3-.3-4.9-.1-1.9,0-3.5.5-5l.3-4c.2-.4.3-.8.6-1.1-.5,0-1.1.1-1.7.3-.9.3-1.4.9-1.6,1.7-.2.8-.2,1.7,0,2.6.2.9.3,1.8.3,2.5ZM362,97.4c-3.2-.2-6.3-.4-9.5-.4-3.2,0-6.3,0-9.5.2-3.1,0-6.2.3-9.4.7-1.5,0-3,.3-4.6.6-1.6.3-3.2.4-4.8.2-.2,0-.2,0,0-.2,1.3-.6,2.8-1.1,4.5-1.3,1.7-.2,3.2-.5,4.7-.7,1.5-.2,3-.3,4.5-.5,1.4-.2,2.9-.3,4.4-.4,6.7-.6,13.3-.9,19.9-.7.8,0,1.2.6,1.2,1.4s-.4,1.2-1.2,1.2Z"/>
      <path class="cls-3" d="M418.5,92.6c-6.6-.5-13.2-.4-19.9.2-6.7.6-13.2,1.8-19.6,3.5-1.4.3-2.7,0-4-.9-1.3-.9-1.9-2.1-1.8-3.6,0-.6,0-1.2,0-1.7,0-.5,0-1.1,0-1.6.2-2.3.3-4.5.3-6.8s0-4.6.1-6.8c-.3-2.7-.6-5.4-.9-8.2-.3-2.8-.6-5.5-.9-8.3-.5-5.5-1.1-11-1.6-16.5-.5-5.5-.9-11-1.3-16.4-.2-1.9.5-3.4,1.9-4.4,1.4-1,3-1.3,4.8-1,.6,0,1.2.2,1.8.4.5.2,1,.4,1.5.6.5,0,1.1.2,1.6.4.5.2,1,.5,1.5.9.9,4.2,1.6,8.4,2.1,12.5l.6,3.4c0-1.4,0-3,0-4.8,0-1.8-.1-3.2-.2-4.2,0-1.3-.2-2.6-.5-3.8-.2-1.2-.7-2.4-1.3-3.6,0-.2,0-.3.1-.3.2,0,.3,0,.4.1,1.5,2,2.5,4.3,2.8,6.9.4,2.6.7,5.1,1,7.6.3,2.9.6,5.9.8,8.8.2,2.9.5,5.9.7,8.8.5,6.1.8,12.3,1,18.5l.4,5.9h0s0,0,.2-.1v.2c0,.2,0,.3,0,.4,0,0,0,.2,0,.3,2.7-.7,5.5-1.2,8.4-1.6,2.9-.3,5.7-.6,8.6-.6,1.2,0,2.3,0,3.5,0,1.2,0,2.3,0,3.4,0,.8,0,1.7.2,2.7.3.9.2,1.7.5,2.4,1,.6.5,1.2,1,1.8,1.7.5.7.8,1.4.8,2.3s0,.6,0,.9c0,.3,0,.6-.2.9.2.3.4.6.7.9.2.3.5.6.7,1,.5.9.7,1.9.5,3-.2,1.1-.7,2-1.5,2.7-.8.7-1.7,1.1-2.9,1ZM371.4,29.5c.2,1,.3,2.1.3,3.1l.3,3.3c.4,4.2.7,8.3.9,12.5.2,4.1.5,8.3.8,12.4v-6.4c0-2.9-.1-5.7-.2-8.5,0-2.8-.1-5.7-.2-8.5,0-1.4-.2-3-.3-4.9-.1-1.9,0-3.5.5-5l.3-4c.2-.4.3-.8.6-1.1-.5,0-1.1.1-1.7.3-.9.3-1.4.9-1.6,1.7-.2.8-.2,1.7,0,2.6.2.9.3,1.8.3,2.5ZM416.6,97.4c-3.2-.2-6.3-.4-9.5-.4-3.2,0-6.3,0-9.5.2-3.1,0-6.2.3-9.4.7-1.5,0-3,.3-4.6.6-1.6.3-3.2.4-4.8.2-.2,0-.2,0,0-.2,1.3-.6,2.8-1.1,4.5-1.3,1.7-.2,3.2-.5,4.7-.7,1.5-.2,3-.3,4.5-.5,1.4-.2,2.9-.3,4.4-.4,6.7-.6,13.3-.9,19.9-.7.8,0,1.2.6,1.2,1.4s-.4,1.2-1.2,1.2Z"/>
      <path class="cls-4" d="M464,92.5c-.5-.2-1-1-1.6-2.4-.6-1.5-1.2-3.3-1.9-5.5-.7-2.2-1.3-4.4-1.9-6.7-.6-2.3-1.1-4.4-1.6-6.3-.5-1.9-.8-3.2-.9-4.1h-9.1c-.8,3.6-1.6,7.1-2.2,10.5-.6,3.4-1.1,6.9-1.4,10.5,0,.7-.3,1.1-1,1.1s-.9-.4-.9-1.1c.3-3.5.7-7,1.3-10.5.6-3.5,1.4-7,2.5-10.4h-1c-.4,1.4-.8,3.1-1.2,5.1-.4,2-.7,3.9-1.1,5.8-.3,1.9-.6,3.5-.9,4.8-.2,1.3-.4,1.9-.4,1.9l-.7,5.2c-.2,2.6-1.1,4.5-2.7,5.7-1.5,1.2-3.2,1.6-5.1,1.4-1.8-.2-3.4-1.1-4.7-2.6-1.3-1.6-1.7-3.7-1.3-6.4.5-3.4,1-6.8,1.6-10.2.6-3.4,1.4-6.8,2.2-10.1-.5,0-1.1.1-1.6.2s-1,0-1.5,0c.2-.4.2-.7.1-1-1.9-.5-3.2-1.5-4.1-3-.8-1.6-1.1-3.3-.7-5.2.4-1.9,1.5-3.6,3.3-5.2,1.8-1.6,4.4-2.6,7.9-3.2.8-3.9,1.8-7.7,2.8-11.4,1-3.8,2.3-7.4,3.7-11,.7-1.6,1.5-3.2,2.3-5.1.9-1.8,1.9-3.4,3.2-4.8,1.3-1.4,2.9-2,4.8-2,1,0,2,.2,3,.8,1,.6,1.8,1.4,2.2,2.3,1.7,0,3.1.7,4.2,1.8s1.8,2.6,1.9,4.5c.2,2.3.3,4.7.6,7,.2,2.4.5,4.7.7,6.9,0,0,.2.1.2.1,0-2,.2-4,.3-6,.1-2,.3-3.9.5-5.9,0-.3,0,.4.2,2.1.1,1.7.3,3.9.4,6.6.2,2.7.3,5.3.5,8,.2,2.7.3,4.9.6,6.7,2.2.2,4,1,5.2,2.3,1.2,1.3,2,2.8,2.3,4.4.3,1.7.2,3.3-.5,4.9-.6,1.6-1.7,2.9-3.4,3.9.8,3.4,1.6,7.3,2.4,11.6.8,4.3,1.5,8.2,2,11.6.3,2.6,0,4.6-.6,6-.7,1.4-1.7,2.1-2.9,2.3-1.2.2-2.4-.3-3.6-1.3-1.2-1-2.1-2.5-2.9-4.6ZM446.9,52.6c.8-.2,1.9-.3,3.3-.3,1.4,0,2.4,0,3.2-.2-.2-1-.3-2.4-.5-4.3-.2-1.9-.4-3.9-.7-6-.3-2.1-.6-4.1-1-5.9-.9,3.3-1.7,6.2-2.4,8.7-.7,2.6-1.3,5.2-1.9,7.9Z"/>
      <path class="cls-8" d="M491.7,8.9c.5.8.8,1.7.9,2.8,0,1.1-.2,2.1-.6,2.9v.4c-.5,1.5-1.4,2.8-2.4,3.8-.8,1-1.8,1.8-2.9,2.4h-.1c-.2.2-.6.5-1,.8-.5.3-1,.2-1.3-.2-.3-.5-.3-.9.2-1.3.5-.5.9-1.1,1.3-1.7.4-.6.7-1.2.9-1.8,0,0,.1-.2.1-.4-.8,0-1.4-.3-2-.9-.6-.6-1-1.3-1.3-2.1-.5-1.1-.8-2.3-.6-3.7.1-1.4.8-2.4,1.9-2.9.5-.3,1.2-.5,1.9-.5s.1,0,.1,0,0,0,.1,0h.3c2-.4,3.6.3,4.9,2.2Z"/>
      <path class="cls-7" d="M554.5,53.8c0,1,.2,2,.4,2.9.2.9.4,1.8.5,2.8.2.8.1,1.5-.3,2.3-.4.7-1,1.2-1.9,1.5-1.8.5-3.4,0-4.5-1.2-1.2-1.2-2-2.9-2.6-4.9-.6-2-1-3.9-1.2-5.7,0,0-.1,0-.1,0s0,0-.1,0c-1.7-2.5-3.8-4.6-6.2-6.5-2.4-1.9-5-3.4-7.8-4.7-2.9-1.3-6-2.3-9.1-3l4.8,4.5c1.8,1.8,3.7,3.6,5.6,5.5,1.9,1.8,3.6,3.7,5.3,5.7,1.7,1.8,3.4,3.6,5.1,5.4,1.7,1.8,3.3,3.7,4.8,5.6,1.1,1.3,2,2.7,2.8,4.2.8,1.5,1.3,3,1.6,4.5.6,1.5,1.1,3,1.4,4.5.3,1.5.4,3,.1,4.6,0,2.5-.9,4.7-2.4,6.7-1.5,2-3.5,3.5-5.8,4.7-2.3,1.2-4.7,1.8-7.2,2h-.4c-1.9.3-4,.4-6.1.2-2.1-.2-4.1-.6-6-1.1-2.6-.5-5-1.5-7.2-3-.2,1-.6,2-1,2.9-.4.9-1,1.6-1.8,2.3-.5.5-1.2.8-2,.8s-1.5-.3-2.1-.8c-.6-.6-1.2-1.4-1.8-2.4-.5-1-.9-2-1-3-.3-.4-.6-.9-.8-1.4-.2-.5-.4-1.1-.5-1.6-.3-3.3-.8-6.5-1.5-9.8-.7-3.3-1.4-6.5-2.3-9.6-.5-1.8-.8-3.6-1.1-5.4-.3-1.9-.5-3.7-.7-5.6-.2-1.6-.5-3.3-.6-5-.2-1.8-.1-3.5.2-5.2.2-1.1.8-2.1,1.6-3,.8-.9,1.8-1.5,3-1.6,1.4-.2,2.6,0,3.7.6s1.9,1.5,2.3,2.9c1.3,3.8,2.1,7.7,2.7,11.7.5,4,1.5,8,2.8,11.8.5,1.4,1.2,2.8,1.9,4.2.7,1.4,1.6,2.6,2.6,3.7.6.5,1.2,1.1,1.8,1.8.6.6,1.3,1.2,2,1.7.7.2,1.4.4,2.1.5.7.1,1.4.2,2.1.3,2.4.2,4.9.2,7.4,0,.8,0,1.6-.2,2.6-.4,1-.2,1.7-.6,2.1-1.3.2-.2.4-.6.4-1.1.3-.6.3-1.4,0-2.3-.3-.9-.6-1.6-.9-2.1,0-.3-.2-.6-.4-.9-.2-.3-.3-.6-.5-.9-.5-.7-1.1-1.4-1.6-2.1-.5-.7-1.1-1.4-1.7-2.1-1.8-2.2-3.6-4.3-5.5-6.4-1.8-2.1-3.8-4.2-5.8-6.2-.8-.8-1.6-1.7-2.3-2.5-.8-.9-1.6-1.7-2.4-2.4l-1.8-1.4c-2.7-2.3-5.3-4.6-7.8-7-2.5-2.4-4.8-5.1-7-7.8-1-1.5-1.9-3-2.7-4.7-.8-1.7-1-3.5-.5-5.4.5-1.9,1.5-3.5,3-4.5,1.6-1.1,3.3-1.5,5.2-1.4,1.3,0,2.6.3,3.8.6,1.2.3,2.5.7,3.7,1.1.5-.2,1.1-.1,1.8.1,3.2.9,6.2,2.1,9,3.4,2.9,1.3,5.7,2.8,8.4,4.6,1.3.8,2.6,1.6,3.8,2.5,1.3.9,2.4,1.9,3.6,3l.6.6v-3c0-1,0-2-.1-3,0-1.6.6-2.9,1.7-4,1.2-1.1,2.5-1.7,4-1.7s3,.6,4,1.7c1,1.1,1.5,2.4,1.7,4,.4,2.7.4,5.5,0,8.3-.4,2.8-.7,5.6-.9,8.3,0,2.9,0,5.7,0,8.5Z"/>
    </g>
  </g>
</svg>